<svg width="170" height="18" viewBox="0 0 170 18" fill="none" xmlns="http://www.w3.org/2000/svg">
<path d="M101.582 7.34792H95.5989L96.6991 5.47998H102.683L101.582 7.34792ZM104.621 2.9966H97.3908L92.1827 11.8612H90.3594L96.6677 1.12866H105.711L104.621 2.9966ZM103.133 11.8612H101.31L107.618 1.12866H109.452L103.133 11.8612ZM120.266 2.9966H116.148L110.93 11.8612H109.127L114.335 2.9966H110.186L111.286 1.12866H121.367L120.266 2.9966ZM127.308 10.9326C126.91 11.6237 126.47 11.9692 126.009 11.9692C125.673 11.9692 125.422 11.7532 125.254 11.3213L122.603 4.41105L118.223 11.8612H116.41L122.173 2.05723C122.32 1.7981 122.519 1.58215 122.76 1.3986C123.001 1.21504 123.242 1.12866 123.483 1.12866C123.819 1.12866 124.06 1.31222 124.206 1.67933L126.868 8.57881L131.248 1.12866H133.072L127.308 10.9326ZM140.459 7.34792H134.476L135.576 5.47998H141.56L140.459 7.34792ZM138.29 11.8612H129.236L135.545 1.12866H144.598L143.498 2.9966H136.278L132.16 9.98246H139.39L138.29 11.8612ZM153.474 8.54642C152.877 9.56137 152.049 10.3712 150.98 10.9974C149.964 11.5697 148.947 11.8612 147.941 11.8612H139.946L141.046 9.98246H149.041C149.534 9.98246 150.037 9.87449 150.54 9.64774C151.137 9.35622 151.567 8.97831 151.85 8.49243C152.133 8.01735 152.133 7.63944 151.86 7.38031C151.63 7.16436 151.263 7.04559 150.771 7.04559H145.824C144.913 7.04559 144.305 6.79725 143.991 6.27898C143.666 5.72832 143.771 4.9941 144.305 4.08713C144.839 3.18015 145.583 2.45673 146.568 1.89527C147.491 1.3878 148.402 1.12866 149.303 1.12866H157.205L156.115 2.9966H148.214C147.857 2.9966 147.512 3.09377 147.145 3.29892C146.778 3.49327 146.506 3.76321 146.306 4.09792C146.097 4.44344 146.065 4.71337 146.202 4.89693C146.338 5.09128 146.579 5.17766 146.925 5.17766H151.86C152.877 5.17766 153.547 5.47998 153.872 6.07383C154.208 6.70008 154.082 7.52067 153.474 8.54642ZM166.269 8.54642C165.672 9.56137 164.844 10.3712 163.775 10.9974C162.758 11.5697 161.742 11.8612 160.736 11.8612H152.741L153.841 9.98246H161.836C162.329 9.98246 162.832 9.87449 163.335 9.64774C163.932 9.35622 164.362 8.97831 164.645 8.49243C164.928 8.01735 164.928 7.63944 164.655 7.38031C164.425 7.16436 164.058 7.04559 163.565 7.04559H158.619C157.708 7.04559 157.1 6.79725 156.785 6.27898C156.461 5.72832 156.565 4.9941 157.1 4.08713C157.634 3.18015 158.378 2.45673 159.363 1.89527C160.285 1.3878 161.197 1.12866 162.098 1.12866H169.999L168.91 2.9966H161.008C160.652 2.9966 160.306 3.09377 159.94 3.29892C159.573 3.49327 159.3 3.76321 159.101 4.09792C158.892 4.44344 158.86 4.71337 158.996 4.89693C159.133 5.09128 159.374 5.17766 159.72 5.17766H164.655C165.672 5.17766 166.342 5.47998 166.667 6.07383C167.002 6.70008 166.877 7.52067 166.269 8.54642Z" fill="#AF4642"/>
<path d="M41.3819 15.6404C41.3819 16.0507 41.2457 16.3962 40.9942 16.6661C40.7322 16.9468 40.3969 17.0764 39.9987 17.0764H38.4688V14.2583H39.9987C40.4074 14.2583 40.7322 14.3879 40.9942 14.647C41.2562 14.8953 41.3819 15.2301 41.3819 15.6404ZM40.8999 15.6835C40.8999 15.4136 40.816 15.1869 40.6484 15.0141C40.4807 14.8414 40.2607 14.755 39.9987 14.755H38.9403V16.5905H39.9987C40.2607 16.5905 40.4807 16.5041 40.6484 16.3314C40.816 16.1694 40.8999 15.9535 40.8999 15.6835Z" fill="white"/>
<path d="M44.8805 17.0764H44.3984V14.2583H44.8805V17.0764ZM51.0107 16.2126C51.0107 16.4717 50.9163 16.6877 50.7277 16.8497C50.5601 17.0008 50.34 17.0764 50.0675 17.0764H47.9822V16.5905H50.0675C50.2038 16.5905 50.319 16.5581 50.4134 16.4933C50.5181 16.4178 50.5705 16.3206 50.5705 16.191C50.5705 16.0722 50.5181 15.9751 50.4029 15.8995C50.3086 15.8455 50.2038 15.8131 50.0675 15.8131H48.7786C48.5481 15.8131 48.349 15.7483 48.1918 15.6188C48.0137 15.4676 47.9298 15.2732 47.9298 15.0357C47.9298 14.7982 48.0137 14.6146 48.1918 14.4634C48.349 14.3339 48.5481 14.2583 48.7786 14.2583H50.843V14.755H48.7786C48.6948 14.755 48.611 14.7766 48.5481 14.8306C48.4852 14.8845 48.4538 14.9493 48.4538 15.0465C48.4538 15.1329 48.4852 15.1977 48.5481 15.2517C48.611 15.3056 48.6948 15.3272 48.7786 15.3272H50.0675C50.34 15.3272 50.5601 15.4028 50.7277 15.5648C50.9163 15.7267 51.0107 15.9427 51.0107 16.2126ZM56.4388 14.755H55.3699V17.0764H54.8983V14.755H53.819V14.2583H56.4388V14.755ZM62.5375 17.0764H61.8249L61.06 16.2882H60.033V15.8023H61.3115C61.4896 15.8023 61.6363 15.7591 61.7621 15.6835C61.8983 15.5864 61.9612 15.4568 61.9612 15.284C61.9612 14.9277 61.7516 14.755 61.3115 14.755H59.7501V17.0764H59.2785V14.2583H61.2381C61.5944 14.2583 61.8773 14.3447 62.0869 14.4958C62.3384 14.6794 62.4641 14.9385 62.4641 15.284C62.4641 15.5216 62.3908 15.7267 62.2441 15.8995C62.1183 16.0507 61.9297 16.1694 61.6992 16.2234L62.5375 17.0764ZM66.0899 17.0764H65.6078V14.2583H66.0899V17.0764ZM72.3563 16.2558C72.3563 16.3746 72.3248 16.4933 72.2724 16.6013C72.0943 16.9144 71.759 17.0764 71.2665 17.0764H69.3069V14.2583H71.2665C71.738 14.2583 72.0629 14.4095 72.2515 14.7118C72.3248 14.8306 72.3563 14.9601 72.3563 15.1005C72.3563 15.3272 72.262 15.5216 72.0733 15.6835C72.262 15.8347 72.3563 16.0291 72.3563 16.2558ZM71.8952 15.0897C71.8952 14.9709 71.8323 14.8845 71.6961 14.8198C71.5913 14.7766 71.476 14.7442 71.3398 14.7442H69.7889V16.5797H71.3398C71.476 16.5797 71.5913 16.5581 71.6856 16.5257C71.8323 16.461 71.8952 16.3746 71.8952 16.2666C71.8952 16.1478 71.8323 16.0615 71.6856 15.9967C71.5808 15.9535 71.4656 15.9319 71.3398 15.9319H70.0614V15.446H71.3398C71.476 15.446 71.5913 15.4136 71.6961 15.3704C71.8323 15.3056 71.8952 15.2085 71.8952 15.0897ZM78.4865 15.8131C78.4865 16.2666 78.3502 16.6013 78.0883 16.8065C77.8472 16.99 77.5119 17.0764 77.0508 17.0764H76.8937C76.4326 17.0764 76.0868 16.99 75.8562 16.8065C75.5943 16.6013 75.458 16.2666 75.458 15.8131V14.2583H75.9401V15.8131C75.9401 16.1478 76.0553 16.3746 76.2754 16.4825C76.4221 16.5581 76.6841 16.5905 77.0508 16.5905C77.3652 16.5905 77.5853 16.5365 77.732 16.4394C77.9101 16.3206 78.0044 16.1154 78.0044 15.8131V14.2583H78.4865V15.8131ZM84.0822 14.755H83.0029V17.0764H82.5313V14.755H81.452V14.2583H84.0822V14.755ZM87.5193 17.0764H87.0373V14.2583H87.5193V17.0764ZM94.1734 15.6404C94.1734 16.0507 94.0477 16.3962 93.7857 16.6661C93.5238 16.9468 93.1989 17.0764 92.8007 17.0764H92.0357C91.6375 17.0764 91.3127 16.9468 91.0507 16.6661C90.7887 16.3962 90.663 16.0507 90.663 15.6404C90.663 15.2301 90.7887 14.8953 91.0402 14.647C91.3022 14.3879 91.6375 14.2583 92.0357 14.2583H92.8007C93.1989 14.2583 93.5342 14.3879 93.7962 14.647C94.0477 14.8953 94.1734 15.2301 94.1734 15.6404ZM93.7019 15.6835C93.7019 15.4136 93.6181 15.1869 93.4504 15.0141C93.2827 14.8414 93.0627 14.755 92.8007 14.755H92.0357C91.7738 14.755 91.5537 14.8414 91.386 15.0141C91.2184 15.1869 91.1346 15.4136 91.1346 15.6835C91.1346 15.9535 91.2184 16.1694 91.386 16.3314C91.5537 16.5041 91.7738 16.5905 92.0357 16.5905H92.8007C93.0627 16.5905 93.2827 16.5041 93.4504 16.3314C93.6181 16.1694 93.7019 15.9535 93.7019 15.6835ZM99.853 16.8389C99.853 17.0116 99.8006 17.1088 99.6749 17.1088C99.5911 17.1088 99.4863 17.0548 99.3815 16.936L97.6315 15.1221V17.0764H97.1495V14.5066C97.1495 14.4419 97.1704 14.3879 97.2019 14.3339C97.2438 14.2907 97.2857 14.2583 97.359 14.2583C97.4429 14.2583 97.5372 14.3123 97.6315 14.4095L99.3815 16.2126V14.2583H99.853V16.8389ZM103.531 16.8389C103.531 16.9144 103.51 16.9792 103.468 17.0224C103.416 17.0656 103.363 17.0872 103.29 17.0872C103.217 17.0872 103.164 17.0656 103.112 17.0224C103.07 16.9792 103.049 16.9144 103.049 16.8389C103.049 16.7633 103.07 16.7093 103.112 16.6661C103.164 16.6121 103.217 16.5905 103.29 16.5905C103.363 16.5905 103.416 16.6121 103.468 16.6661C103.51 16.7093 103.531 16.7633 103.531 16.8389ZM109.944 17.0764H109.232L108.467 16.2882H107.44V15.8023H108.729C108.896 15.8023 109.043 15.7591 109.169 15.6835C109.305 15.5864 109.368 15.4568 109.368 15.284C109.368 14.9277 109.158 14.755 108.729 14.755H107.167V17.0764H106.685V14.2583H108.645C109.001 14.2583 109.284 14.3447 109.504 14.4958C109.745 14.6794 109.871 14.9385 109.871 15.284C109.871 15.5216 109.798 15.7267 109.651 15.8995C109.525 16.0507 109.336 16.1694 109.116 16.2234L109.944 17.0764ZM115.173 15.8995H113.612V15.4028H115.173V15.8995ZM115.299 17.0764H112.941V14.2583H115.299V14.755H113.413V16.5905H115.299V17.0764ZM120.853 14.755H119.774V17.0764H119.302V14.755H118.223V14.2583H120.853V14.755ZM127.245 17.0764H126.637L126.176 16.2882H124.877L125.17 15.8023H125.893L125.422 14.9925L124.185 17.0764H123.577L125.055 14.5282C125.097 14.4634 125.149 14.4095 125.212 14.3447C125.296 14.2907 125.369 14.2583 125.432 14.2583C125.495 14.2583 125.568 14.2799 125.642 14.3447C125.705 14.3987 125.757 14.4634 125.799 14.5282L127.245 17.0764ZM130.588 17.0764H130.116V14.2583H130.588V17.0764ZM136.026 17.0764H133.669V14.2583H134.151V16.5905H136.026V17.0764ZM139.422 16.8389C139.422 16.9144 139.401 16.9792 139.348 17.0224C139.306 17.0656 139.243 17.0872 139.17 17.0872C139.107 17.0872 139.044 17.0656 139.002 17.0224C138.95 16.9792 138.929 16.9144 138.929 16.8389C138.929 16.7633 138.95 16.7093 139.002 16.6661C139.044 16.6121 139.107 16.5905 139.17 16.5905C139.243 16.5905 139.306 16.6121 139.348 16.6661C139.401 16.7093 139.422 16.7633 139.422 16.8389ZM145.478 17.0764H143.938C143.54 17.0764 143.204 16.9468 142.953 16.6661C142.691 16.3962 142.555 16.0507 142.555 15.6404C142.555 15.2301 142.691 14.8953 142.942 14.647C143.204 14.3879 143.529 14.2583 143.938 14.2583H145.478V14.755H143.938C143.676 14.755 143.456 14.8414 143.288 15.0141C143.121 15.1869 143.037 15.4136 143.037 15.6835C143.037 15.9535 143.121 16.1694 143.288 16.3314C143.456 16.5041 143.676 16.5905 143.938 16.5905H145.478V17.0764ZM150.728 17.0764H148.371V14.2583H148.842V16.5905H150.728V17.0764ZM156.712 15.8131C156.712 16.2666 156.576 16.6013 156.314 16.8065C156.083 16.99 155.737 17.0764 155.287 17.0764H155.119C154.658 17.0764 154.323 16.99 154.082 16.8065C153.82 16.6013 153.694 16.2666 153.694 15.8131V14.2583H154.165V15.8131C154.165 16.1478 154.281 16.3746 154.511 16.4825C154.658 16.5581 154.909 16.5905 155.287 16.5905C155.591 16.5905 155.821 16.5365 155.968 16.4394C156.146 16.3206 156.23 16.1154 156.23 15.8131V14.2583H156.712V15.8131ZM162.915 16.2558C162.915 16.3746 162.884 16.4933 162.832 16.6013C162.653 16.9144 162.318 17.0764 161.826 17.0764H159.866V14.2583H161.826C162.297 14.2583 162.622 14.4095 162.811 14.7118C162.884 14.8306 162.915 14.9601 162.915 15.1005C162.915 15.3272 162.821 15.5216 162.632 15.6835C162.821 15.8347 162.915 16.0291 162.915 16.2558ZM162.454 15.0897C162.454 14.9709 162.391 14.8845 162.255 14.8198C162.15 14.7766 162.035 14.7442 161.899 14.7442H160.348V16.5797H161.899C162.035 16.5797 162.15 16.5581 162.245 16.5257C162.391 16.461 162.454 16.3746 162.454 16.2666C162.454 16.1478 162.391 16.0615 162.245 15.9967C162.14 15.9535 162.025 15.9319 161.899 15.9319H160.62V15.446H161.899C162.035 15.446 162.15 15.4136 162.255 15.3704C162.391 15.3056 162.454 15.2085 162.454 15.0897ZM168.899 16.2126C168.899 16.4717 168.805 16.6877 168.616 16.8497C168.448 17.0008 168.228 17.0764 167.956 17.0764H165.87V16.5905H167.956C168.092 16.5905 168.207 16.5581 168.302 16.4933C168.406 16.4178 168.469 16.3206 168.469 16.191C168.469 16.0722 168.406 15.9751 168.291 15.8995C168.207 15.8455 168.092 15.8131 167.956 15.8131H166.667C166.436 15.8131 166.237 15.7483 166.08 15.6188C165.902 15.4676 165.818 15.2732 165.818 15.0357C165.818 14.7982 165.902 14.6146 166.08 14.4634C166.237 14.3339 166.436 14.2583 166.667 14.2583H168.731V14.755H166.667C166.583 14.755 166.499 14.7766 166.436 14.8306C166.373 14.8845 166.342 14.9493 166.342 15.0465C166.342 15.1329 166.373 15.1977 166.436 15.2517C166.499 15.3056 166.583 15.3272 166.667 15.3272H167.956C168.228 15.3272 168.448 15.4028 168.616 15.5648C168.805 15.7267 168.899 15.9427 168.899 16.2126Z" fill="white"/>
<path d="M0 0.988281H7.91161L17.5208 17.1303H9.59872L0 0.988281Z" fill="white"/>
<path d="M9.30469 0.988525H17.2268L26.836 17.1305H18.9139L9.30469 0.988525Z" fill="white"/>
<path d="M18.5898 0.988525H36.2678L33.2185 5.9121H21.5135L18.5898 0.988525Z" fill="#B44843"/>
<path d="M29.2883 12.261H25.2225L22.1836 7.14307H32.453L29.2883 12.261Z" fill="#B44843"/>
<path d="M44.1691 11.5698L37.8398 0.880426L40.009 0.891224L44.7559 8.80566L46.0029 6.76496L42.5239 0.880426L44.6826 0.891224L49.3562 8.68689L53.9984 0.869629L56.199 0.880426C54.0508 4.47593 51.934 8.01745 49.8278 11.5698H48.8847L47.0823 8.57891C46.4535 9.62625 45.8667 10.598 45.2799 11.5698H44.1691Z" fill="#FEFEFE"/>
<path d="M51.5352 11.5692L57.9168 0.89068L68.5635 0.879883L67.4632 2.65064L67.0964 2.63985H59.0381L54.7208 9.87405H63.1039L62.0875 11.5692H51.5352Z" fill="#FEFEFE"/>
<path d="M76.2344 11.5698L82.5741 0.869629L84.7642 0.880426L79.3781 9.88539H87.5517L86.4409 11.5698H76.2344Z" fill="#FEFEFE"/>
<path d="M64.1406 11.5698L67.0328 6.67859L70.2603 1.26913L70.5013 0.869629L72.6705 0.880426L67.3053 9.87459H75.395L74.3471 11.5698H64.1406Z" fill="#FEFEFE"/>
<path d="M57.7305 7.08871L58.705 5.35034L65.6945 5.37194L64.6361 7.09951L57.7305 7.08871Z" fill="#FEFEFE"/>
</svg>
