<svg width="40" height="41" viewBox="0 0 40 41" fill="none" xmlns="http://www.w3.org/2000/svg">
<g id="mastercard 1">
<path id="Vector" d="M40 20.3534C40 13.8373 34.7097 8.48242 28.129 8.48242C25.2903 8.48242 22.7097 9.45016 20.6452 11.1276C22.1935 12.6115 23.4194 14.4824 24 16.6115H23.0323C22.3871 14.7405 21.3548 13.0631 19.9355 11.7082C18.5161 13.0631 17.4839 14.7405 16.8387 16.6115H15.871C16.5161 14.4824 17.6774 12.6115 19.2258 11.1276C17.1613 9.45016 14.6452 8.48242 11.8065 8.48242C5.29032 8.48242 0 13.8373 0 20.3534C0 26.8695 5.29032 32.2244 11.871 32.2244C14.7097 32.2244 17.2903 31.1921 19.2903 29.5792C17.7419 28.0953 16.5806 26.2244 15.9355 24.0953H16.9032C17.5484 25.9663 18.5806 27.6437 20 28.9986C21.4194 27.6437 22.5161 25.9663 23.0968 24.0953H24.0645C23.4194 26.2244 22.2581 28.0953 20.7097 29.5792C22.7742 31.2566 25.3548 32.2244 28.1935 32.2244C34.7097 32.2244 40 26.8695 40 20.3534Z" fill="#858FA4"/>
<g id="Group">
<path id="Vector_2" d="M31.2891 23.1273L32.1278 18.7402H33.16L33.2891 19.1918C33.4826 18.9983 33.8052 18.7402 34.4503 18.7402L34.1278 19.9015C33.8052 19.9015 33.2891 19.837 32.902 21.1273L32.5149 23.1273H31.2891Z" fill="#1A1A25"/>
<path id="Vector_3" d="M15.481 17.6436H16.6423L16.3842 18.8048H17.0294L16.8358 19.7081H16.2552L15.9326 21.45C15.8681 21.7726 15.9326 22.0952 16.5777 21.9661L16.4487 22.9339C16.1906 23.1274 15.8681 23.1274 15.5455 23.1274C15.2874 23.1274 14.3842 22.9339 14.5777 21.7726L15.481 17.6436Z" fill="#1A1A25"/>
<path id="Vector_4" d="M20.6447 21.1918C20.7737 20.4822 21.0963 18.7402 19.0318 18.7402C17.0963 18.7402 16.8382 20.6757 16.8382 20.9338C16.7737 21.1918 16.7737 23.1273 18.8382 23.1273C19.3544 23.1273 20.064 23.0628 20.3866 22.9338L20.5802 22.0306C20.3866 22.0951 19.7415 22.1596 19.2253 22.1596C18.7737 22.1596 17.9995 22.1596 18.1286 21.1918H20.6447Z" fill="#1A1A25"/>
<path id="Vector_5" d="M14.3235 19.7726L14.5815 18.8693C14.0009 18.6758 13.5493 18.6758 13.4202 18.6758C13.2267 18.6758 11.8073 18.6758 11.6138 19.708C11.4202 20.5467 11.7428 20.8693 12.0009 20.9984C12.4525 21.1919 12.7106 21.3855 12.9686 21.5145C13.2912 21.6435 13.2267 22.1597 12.8396 22.1597C12.646 22.1597 11.8718 22.2242 11.2912 22.0306L11.0977 22.9338C11.6783 23.0629 12.0654 23.0629 12.517 23.0629C12.8396 23.0629 14.2589 23.1274 14.4525 21.8371C14.5815 21.1919 14.2589 20.9338 14.0654 20.7403C13.8073 20.6113 13.4848 20.3532 13.2267 20.2887C12.9686 20.1597 12.7751 19.7726 13.2267 19.6435C13.4202 19.708 14.0009 19.708 14.3235 19.7726Z" fill="#1A1A25"/>
<path id="Vector_6" d="M6.57964 23.1272L7.61189 17.8369H5.6119L4.19254 21.0627L3.93448 17.8369H2.06351L1.03125 23.1272H2.19254L2.96673 19.3208L3.28931 23.1272H4.38609L6.06351 19.3853L5.35383 23.1272H6.57964Z" fill="#1A1A25"/>
<path id="Vector_7" d="M7.93298 18.8696L7.73943 19.8373C8.06201 19.8373 8.8362 19.7083 9.2233 19.7083C9.61039 19.7083 10.1265 19.6438 9.93297 20.2889C9.61039 20.2889 7.48136 19.9664 7.15878 21.8373C7.02975 22.7406 7.80394 23.1922 8.38459 23.1922C8.96523 23.1922 9.15878 23.0631 9.35233 22.9341L9.48136 23.1922H10.5781L11.0297 20.8051C11.1588 20.2244 11.3523 18.8051 9.35233 18.8051C9.09427 18.7406 8.70717 18.7406 7.93298 18.8696Z" fill="#1A1A25"/>
<path id="Vector_8" d="M27.226 19.063C26.9035 18.8694 26.7099 18.8694 26.3228 18.8694C25.9357 18.8694 25.0325 19.2565 24.9035 20.2888C24.7099 21.5791 25.5486 22.1597 26.7744 21.7726L27.097 22.8694C26.7099 23.063 26.3228 23.1275 25.6777 23.1275C24.4519 23.1275 23.097 22.0307 23.6777 19.7726C24.1293 18.1597 25.5486 17.5146 26.3873 17.5791C27.3551 17.6436 27.7422 17.9662 28.0002 18.2888L27.226 19.063Z" fill="#1A1A25"/>
<path id="Vector_9" d="M37.3537 19.2565C37.0956 19.063 36.9666 18.7404 36.4505 18.7404C35.8053 18.7404 34.7731 18.6114 34.1924 20.6114C33.8053 21.9662 34.5795 23.1275 35.4182 23.1275C35.8053 23.1275 36.1924 22.9339 36.4505 22.8049L36.5795 23.1275H37.8698L38.9021 17.5791H37.6763L37.3537 19.2565Z" fill="#1A1A25"/>
<path id="Vector_10" d="M28.0658 18.8696L27.8722 19.8373C28.1948 19.8373 28.969 19.7083 29.3561 19.7083C29.7432 19.7083 30.1948 19.6438 30.0658 20.2889C29.7432 20.2889 27.6142 19.9664 27.2916 21.8373C27.1626 22.7406 27.9368 23.1922 28.5174 23.1922C29.098 23.1922 29.2916 23.0631 29.4851 22.9341L29.6142 23.1922H30.7109L31.1626 20.8051C31.2916 20.2244 31.4851 18.8051 29.4851 18.8051C29.2916 18.7406 28.84 18.7406 28.0658 18.8696Z" fill="#1A1A25"/>
</g>
<g id="Group_2">
<path id="Vector_11" d="M18.1289 20.3533H19.6128C19.6773 19.9017 19.5483 19.5791 19.0966 19.5791C18.5805 19.5791 18.2579 19.8372 18.1289 20.3533Z" fill="#858FA4"/>
<path id="Vector_12" d="M9.74253 21.1919C9.54899 21.1919 9.09737 21.0629 8.71028 21.321C8.32318 21.579 8.19415 22.0306 8.64576 22.1597C9.03286 22.2887 9.54899 22.0306 9.67802 21.6435L9.74253 21.1919Z" fill="#858FA4"/>
<path id="Vector_13" d="M36.967 21.0629C37.0961 20.6759 37.0316 20.1597 36.9025 19.9662C36.5154 19.4501 35.6767 19.8371 35.4187 20.8049C35.2251 21.45 35.6122 21.9017 35.9993 21.9017C36.4509 21.9017 36.709 21.5791 36.967 21.0629Z" fill="#858FA4"/>
<path id="Vector_14" d="M29.9339 21.1919C29.7404 21.1919 29.2888 21.0629 28.9017 21.321C28.5146 21.579 28.3856 22.0306 28.8372 22.1597C29.2243 22.2887 29.8049 22.0306 29.8694 21.6435L29.9339 21.1919Z" fill="#858FA4"/>
</g>
<path id="Vector_15" d="M20.6445 23.1278L21.4832 18.8052H22.5155L22.6445 19.2568C22.8381 19.0632 23.1607 18.8052 23.8058 18.8052L23.4832 19.9665C23.2252 19.9665 22.6445 19.902 22.2574 21.1923L21.8703 23.1923H20.6445" fill="#1A1A25"/>
<g id="Group_3">
<path id="Vector_16" d="M11.8703 8.48242C6.64453 8.48242 2.19292 11.9018 0.644531 16.6115H15.9994C16.6445 14.4824 17.8058 12.6115 19.3542 11.1276C17.2252 9.51468 14.6445 8.48242 11.8703 8.48242Z" fill="#858FA4"/>
<path id="Vector_17" d="M19.9991 11.7729C18.5798 13.1278 17.5475 14.7407 16.9023 16.6762H23.0959C22.4507 14.8052 21.4185 13.1278 19.9991 11.7729Z" fill="#858FA4"/>
<path id="Vector_18" d="M28.1284 8.48242C25.2897 8.48242 22.709 9.45016 20.6445 11.1276C22.1929 12.6115 23.3542 14.4824 23.9994 16.6115H39.3542C37.8703 11.9018 33.4187 8.48242 28.1284 8.48242Z" fill="#858FA4"/>
</g>
</g>
</svg>
