<svg width="55" height="21" viewBox="0 0 55 21" fill="none" xmlns="http://www.w3.org/2000/svg">
<g id="paypal-logo 1">
<g id="Group">
<g id="Group_2">
<path id="Vector" d="M10.5428 4.397C10.3503 4.01075 10.0457 3.69218 9.66761 3.45296C9.27319 3.21141 8.80759 3.0422 8.27547 2.94185C7.73402 2.84383 7.10855 2.79948 6.38389 2.79248L3.03831 2.79482C2.69057 2.79948 2.34983 3.07021 2.26814 3.40628L0.017144 13.2108C-0.0645408 13.5422 0.153674 13.8199 0.501418 13.8199H2.10361C2.45135 13.8199 2.79559 13.5504 2.87261 13.2108L3.42223 10.8303C3.49575 10.4989 3.83882 10.2223 4.19007 10.2223H4.64867C6.60794 10.22 8.12494 9.8197 9.21485 9.01803C10.3106 8.21518 10.8509 7.15445 10.8509 5.84049C10.8497 5.26519 10.7552 4.78209 10.5428 4.397ZM7.08754 7.60021C6.60327 7.95496 5.92995 8.13233 5.06176 8.13233H4.66967C4.32076 8.13233 4.10722 7.85694 4.18307 7.52086L4.66501 5.43907C4.73269 5.10533 5.08393 4.82876 5.42818 4.8311L5.95329 4.8276C6.56593 4.8276 7.03386 4.93379 7.3466 5.13917C7.65584 5.34221 7.81104 5.66545 7.8087 6.09371C7.81804 6.74486 7.56948 7.24547 7.08754 7.60021Z" fill="#858FA4"/>
</g>
</g>
<g id="Group_3">
<g id="Group_4">
<path id="Vector_2" d="M18.2683 5.79822C17.6638 5.45748 16.7093 5.28711 15.4046 5.28711C14.7593 5.28711 14.1164 5.33729 13.4664 5.43764C12.9868 5.51116 12.9401 5.52516 12.6449 5.58934C12.0357 5.72237 11.94 6.33034 11.94 6.33034L11.744 7.13668C11.6331 7.6513 11.9295 7.63146 12.0532 7.58829C12.3193 7.50894 12.4675 7.42725 13.0113 7.30589C13.5306 7.18803 14.0778 7.09934 14.5119 7.10518C15.1526 7.10518 15.6427 7.17286 15.9694 7.31056C16.2915 7.45059 16.4525 7.69098 16.4525 8.03872L16.4245 8.2651L16.1935 8.40747C15.2844 8.46465 14.6275 8.54866 13.8305 8.66419C13.051 8.77271 12.3671 8.96292 11.7988 9.22315C11.1885 9.49154 10.7358 9.85212 10.4195 10.3107C10.1138 10.7717 9.96094 11.3306 9.96094 11.9864C9.96094 12.6037 10.1827 13.1137 10.6132 13.5081C11.0462 13.8955 11.618 14.0846 12.3018 14.0846C12.7347 14.0822 13.0696 14.0484 13.3077 13.9912L14.0837 13.724L14.7407 13.3599L15.3451 12.9608L15.3533 12.9725L15.2926 13.2292L15.2891 13.2397V13.242C15.2238 13.5548 15.4128 13.8115 15.7174 13.8418L15.7232 13.8488H15.7512H16.98H17.211L17.232 13.8395C17.5518 13.8022 17.8517 13.5454 17.9217 13.2397L19.0898 8.18342L19.1505 7.77149L19.1785 7.38524C19.1831 6.66875 18.8739 6.1378 18.2683 5.79822ZM15.6847 11.4835L15.435 11.8126L14.8048 12.1381C14.5084 12.2583 14.2272 12.319 13.967 12.319C13.5726 12.319 13.2633 12.2618 13.0545 12.1451L12.7452 11.5442C12.7452 11.2186 12.8199 10.9607 12.9798 10.7623L13.6589 10.3002C13.9495 10.2022 14.3042 10.1193 14.715 10.0622C15.0814 10.0167 15.8049 9.93381 15.8994 9.93147L16.0103 10.1263C15.9881 10.2372 15.7827 11.0961 15.6847 11.4835Z" fill="#858FA4"/>
</g>
</g>
<g id="Group_5">
<g id="Group_6">
<path id="Vector_3" d="M47.3698 5.80525C46.7619 5.46451 45.8085 5.29297 44.5074 5.29297C43.8621 5.29297 43.2179 5.34315 42.5703 5.447C42.0895 5.51702 42.0417 5.53219 41.7453 5.5952C41.1373 5.72707 41.0428 6.33737 41.0428 6.33737L40.8467 7.14255C40.737 7.65716 41.0264 7.63382 41.1618 7.59414C41.429 7.51479 41.5726 7.43661 42.1117 7.31058C42.6286 7.19389 43.1806 7.10754 43.6158 7.10987C44.2541 7.10987 44.7443 7.17872 45.0698 7.31642C45.3942 7.45645 45.5529 7.69917 45.5529 8.04341L45.5284 8.26863L45.2997 8.41449C44.3813 8.46934 43.7232 8.55336 42.9344 8.66888C42.1572 8.77741 41.471 8.96645 40.9016 9.22784C40.2936 9.4974 39.835 9.85798 39.5223 10.3177C39.213 10.7787 39.0625 11.3365 39.0625 11.9864C39.0625 12.6084 39.2819 13.1184 39.7183 13.5105C40.1536 13.8967 40.7195 14.0904 41.4034 14.0904C41.8339 14.0857 42.1689 14.0577 42.4081 13.9959L43.1817 13.7322L43.8446 13.3681L44.4444 12.9643L44.4549 12.9772L44.4 13.2362L44.3942 13.2409L44.3965 13.2456C44.3242 13.5583 44.5144 13.8174 44.8224 13.8454L44.8248 13.8512H44.8528C45.0547 13.8512 45.7525 13.8512 46.0851 13.8512H46.3114L46.3359 13.843C46.6522 13.8045 46.9509 13.5478 47.0174 13.2386L48.189 8.18928L48.2509 7.77502L48.2847 7.3876C48.2859 6.67344 47.9801 6.14483 47.3698 5.80525ZM44.7921 11.4905L44.5319 11.8231L43.9076 12.1463C43.6112 12.2653 43.3288 12.3272 43.0732 12.3272C42.666 12.3272 42.3649 12.2688 42.1619 12.1522L41.8491 11.5535C41.8491 11.2268 41.925 10.9712 42.0778 10.7693C42.233 10.5791 42.4699 10.4228 42.764 10.3084C43.0511 10.2104 43.4058 10.131 43.8189 10.0715C44.183 10.026 44.9041 9.94083 44.9975 9.93966L45.1107 10.1345C45.0943 10.2454 44.8878 11.1008 44.7921 11.4905Z" fill="#858FA4"/>
</g>
</g>
<g id="Group_7">
<g id="Group_8">
<path id="Vector_4" d="M39.6413 4.43284C39.4406 4.04425 39.1396 3.73035 38.7591 3.48529C38.3694 3.24257 37.9073 3.0722 37.367 2.97418C36.8361 2.87966 36.2024 2.82832 35.4824 2.82715L32.1322 2.82948C31.7833 2.83532 31.4484 3.10604 31.3678 3.43862L29.1145 13.2478C29.0328 13.5804 29.2569 13.8558 29.5976 13.8558L31.2021 13.8534C31.5429 13.8558 31.8918 13.5827 31.9723 13.2466L32.5149 10.8649C32.5943 10.5335 32.9385 10.2546 33.2851 10.257H33.7437C35.7053 10.257 37.2258 9.8532 38.3204 9.05386C39.4021 8.24518 39.9494 7.18678 39.9494 5.87165C39.9436 5.29869 39.8444 4.81442 39.6413 4.43284ZM36.1861 7.64071C35.703 7.98846 35.0285 8.16583 34.165 8.16583H33.7659C33.4216 8.16933 33.1987 7.88927 33.2758 7.55553L33.7612 5.47724C33.8324 5.14466 34.1801 4.86577 34.5267 4.86927L35.046 4.86577C35.6621 4.86927 36.1242 4.97079 36.4393 5.17617C36.7532 5.38155 36.9014 5.70362 36.9049 6.13071C36.9084 6.78186 36.6668 7.28364 36.1861 7.64071Z" fill="#858FA4"/>
</g>
</g>
<g id="Group_9">
<g id="Group_10">
<path id="Vector_5" d="M53.3779 3.51674C53.4514 3.18184 53.2414 2.90994 52.8971 2.91461H51.4618C51.1677 2.91461 50.9028 3.13282 50.7733 3.40122L50.694 3.52491L50.6216 3.84232L48.6157 12.9607L48.5503 13.2407L48.5527 13.2477C48.4861 13.5476 48.6705 13.774 48.9553 13.8172L48.9798 13.851H50.4699C50.7617 13.851 51.0359 13.6293 51.1607 13.3563L51.2378 13.2396L53.3826 3.51791L53.3779 3.51674Z" fill="#858FA4"/>
</g>
</g>
<g id="Group_11">
<g id="Group_12">
<path id="Vector_6" d="M29.1544 5.4098C28.7752 5.41447 27.2337 5.4098 27.2337 5.4098C26.8883 5.4098 26.4448 5.6887 26.2255 6.02127C26.2255 6.02127 23.9313 9.95847 23.7084 10.3541L23.4423 10.3506L22.7282 6.04811C22.6488 5.7097 22.2953 5.4203 21.8553 5.4203L20.42 5.42264C20.0746 5.42264 19.8622 5.69803 19.9404 6.03411C19.9404 6.03411 21.0303 12.2363 21.2485 13.6961C21.3501 14.5013 21.2357 14.6448 21.2357 14.6448L19.8167 17.1164C19.6067 17.4525 19.7199 17.7267 20.0641 17.7267L21.7235 17.7244C22.0689 17.7244 22.5228 17.4525 22.7282 17.1152L29.1113 6.31883C29.1113 6.32 29.7251 5.39696 29.1544 5.4098Z" fill="#858FA4"/>
</g>
</g>
</g>
</svg>
