<svg width="20" height="20" viewBox="0 0 20 20" fill="none" xmlns="http://www.w3.org/2000/svg">
<g id="search" clip-path="url(#clip0_929_12737)">
<path id="Vector" d="M11.6185 17.0984C9.84724 17.098 8.12705 16.5051 6.73181 15.4141L2.3451 19.8005L0.934088 18.3896L5.3208 14.0031C4.22911 12.6078 3.6358 10.8873 3.63537 9.11573C3.63537 4.71428 7.21679 1.13306 11.6185 1.13306C16.0201 1.13306 19.6016 4.71428 19.6016 9.11573C19.6016 13.5172 16.0201 17.0984 11.6185 17.0984ZM11.6185 3.12872C8.31646 3.12872 5.63114 5.81389 5.63114 9.11573C5.63114 12.4176 8.31646 15.1027 11.6185 15.1027C14.9205 15.1027 17.6058 12.4176 17.6058 9.11573C17.6058 5.81389 14.9205 3.12872 11.6185 3.12872Z" fill="#858FA4" fill-opacity="0.7"/>
</g>
<defs>
<clipPath id="clip0_929_12737">
<rect width="20" height="18.6675" fill="white" transform="translate(0 0.66626)"/>
</clipPath>
</defs>
</svg>
