<svg width="40" height="41" viewBox="0 0 40 41" fill="none" xmlns="http://www.w3.org/2000/svg">
<g id="symbols 1">
<g id="Group">
<g id="Group_2">
<path id="Vector" d="M16.0172 14.4014L13.9844 26.331H17.2356L19.2702 14.4014H16.0172Z" fill="#858FA4"/>
</g>
</g>
<g id="Group_3">
<g id="Group_4">
<path id="Vector_2" d="M11.2582 14.4146L8.07389 22.5503L7.73438 21.3218C7.10637 19.8417 5.32354 17.716 3.23047 16.3764L6.14221 26.325L9.58244 26.3191L14.7026 14.4121L11.2582 14.4146Z" fill="#858FA4"/>
</g>
</g>
<g id="Group_5">
<g id="Group_6">
<path id="Vector_3" d="M6.49914 15.2685C6.31016 14.5418 5.76243 14.3252 5.08258 14.2993H0.0418113L0 14.5368C3.92273 15.4884 6.51838 17.7814 7.59543 20.5384L6.49914 15.2685Z" fill="#858FA4"/>
</g>
</g>
<g id="Group_7">
<g id="Group_8">
<path id="Vector_4" d="M25.859 16.6882C26.9227 16.6715 27.6937 16.904 28.2924 17.1448L28.5859 17.2828L29.0258 14.6972C28.3819 14.4555 27.3726 14.1963 26.1132 14.1963C22.9004 14.1963 20.6359 15.8144 20.6184 18.1332C20.5975 19.8467 22.2314 20.8033 23.4657 21.3744C24.7326 21.9598 25.1574 22.3319 25.1515 22.8546C25.1415 23.6532 24.1414 24.0194 23.2073 24.0194C21.9053 24.0194 21.2138 23.8396 20.1459 23.3948L19.7269 23.2041L19.2695 25.8742C20.0305 26.2078 21.4345 26.4947 22.8921 26.5097C26.3097 26.5097 28.5307 24.9108 28.5541 22.4331C28.5684 21.0776 27.7012 20.0432 25.8222 19.1944C24.6849 18.6408 23.9892 18.2729 23.9959 17.7143C23.9959 17.2184 24.5863 16.6882 25.859 16.6882Z" fill="#858FA4"/>
</g>
</g>
<g id="Group_9">
<g id="Group_10">
<path id="Vector_5" d="M37.3672 14.4146H34.8551C34.0749 14.4146 33.4946 14.627 33.1517 15.4046L28.3242 26.3374H31.7385C31.7385 26.3374 32.2954 24.8674 32.4217 24.5454C32.7955 24.5454 36.1128 24.5504 36.5853 24.5504C36.6823 24.9669 36.9817 26.3374 36.9817 26.3374H39.9979L37.3672 14.4146ZM33.3575 22.1036C33.6251 21.4188 34.6528 18.7696 34.6528 18.7696C34.6352 18.8022 34.9179 18.0797 35.0859 17.6307L35.305 18.6592C35.305 18.6592 35.928 21.5074 36.0585 22.1036H33.3575Z" fill="#858FA4"/>
</g>
</g>
</g>
</svg>
