<svg width="30" height="33" viewBox="0 0 30 33" fill="none" xmlns="http://www.w3.org/2000/svg">
<g id="symbols (1) 1">
<g id="Group">
<g id="Group_2">
<path id="Vector" d="M22.1464 16.1059L19.8047 18.2217L21.9191 20.562L24.2609 18.4462L22.1464 16.1059Z" fill="#858FA4"/>
</g>
</g>
<g id="Group_3">
<g id="Group_4">
<path id="Vector_2" d="M17.4823 18.0092L14.3594 20.8203L17.1719 23.9447L20.2948 21.1336L17.4823 18.0092Z" fill="#858FA4"/>
</g>
</g>
<g id="Group_5">
<g id="Group_6">
<path id="Vector_3" d="M26.3724 15.3611L24.8125 16.7671L26.2184 18.327L27.7783 16.921L26.3724 15.3611Z" fill="#858FA4"/>
</g>
</g>
<g id="Group_7">
<g id="Group_8">
<path id="Vector_4" d="M17.9847 6.45345L15.6406 8.56348L17.7506 10.9075L20.0947 8.7975L17.9847 6.45345Z" fill="#858FA4"/>
</g>
</g>
<g id="Group_9">
<g id="Group_10">
<path id="Vector_5" d="M24.3731 10.6999L22.8164 12.1064L24.2242 13.6646L25.781 12.2581L24.3731 10.6999Z" fill="#858FA4"/>
</g>
</g>
<g id="Group_11">
<g id="Group_12">
<path id="Vector_6" d="M15.2665 12.5968L12.1406 15.4106L14.9531 18.5351L18.079 15.7212L15.2665 12.5968Z" fill="#858FA4"/>
</g>
</g>
<g id="Group_13">
<g id="Group_14">
<path id="Vector_7" d="M13.0307 7.27248L9.90625 10.085L12.7187 13.2094L15.8431 10.3969L13.0307 7.27248Z" fill="#858FA4"/>
</g>
</g>
<g id="Group_15">
<g id="Group_16">
<path id="Vector_8" d="M20.1351 11.1673L17.7969 13.2778L19.9114 15.6205L22.2496 13.51L20.1351 11.1673Z" fill="#858FA4"/>
</g>
</g>
<g id="Group_17">
<g id="Group_18">
<path id="Vector_9" d="M22.3685 6.06621L20.8086 7.47217L22.2145 9.03205L23.7744 7.6261L22.3685 6.06621Z" fill="#858FA4"/>
</g>
</g>
<g id="Group_19">
<g id="Group_20">
<path id="Vector_10" d="M24.2103 20.8413L21.8672 22.9526L23.9798 25.2972L26.3229 23.1859L24.2103 20.8413Z" fill="#858FA4"/>
</g>
</g>
<g id="Group_21">
<g id="Group_22">
<path id="Vector_11" d="M20.1023 23.4974L17.0483 26.3134L11.8923 20.5754L13.3262 19.3134L9.71625 15.2714L11.1582 14.0074L7.49425 9.96942L13.2123 4.82142L15.0283 6.80942L18.0943 4.07342L19.9063 5.95142L21.1143 4.86942C20.8443 4.71342 20.5742 4.56942 20.3002 4.43942C18.5582 3.58742 16.6023 3.10742 14.5423 3.10742C7.30825 3.10742 1.40625 9.00742 1.40625 16.2434C1.40625 23.4774 7.30825 29.3774 14.5423 29.3774C16.8923 29.3774 19.1063 28.7554 21.0163 27.6654C21.6463 27.3094 22.2202 26.9234 22.7442 26.5174L20.1023 23.4974Z" fill="#858FA4"/>
</g>
</g>
</g>
</svg>
